<svg version="1.0" xmlns="http://www.w3.org/2000/svg" width="1333.333" height="1333.333" viewBox="0 0 1000 1000"><path d="M34.9 1.5c-16 4.4-29.2 17.8-33.5 34C.3 39.6 0 119.6 0 499.5c0 441.6.1 459.3 1.8 465.7 1 3.6 3.1 8.6 4.5 11.1 4.8 8.1 14.7 16.8 23.7 20.8l5.5 2.4 461.5.3c314.5.1 463.1-.1 466.5-.8 7.7-1.6 14.4-5.2 20.9-11.1 6.4-5.8 9.8-10.7 13-18.4l2.1-5 .3-460c.1-285.6-.1-462.3-.7-466.2-1.3-8.3-6.5-18.4-12.8-24.8-4.7-4.9-13.9-10.4-20.3-12.3C964.6.8 755.6.4 501.5.3 130.3.2 38.6.4 34.9 1.5z"/></svg>