<svg xmlns="http://www.w3.org/2000/svg" xmlns:xlink="http://www.w3.org/1999/xlink" preserveAspectRatio="none" width="1000" height="1000"><defs><g id="Layer1_0_FILL"><path fill="#C47A28" d="M39.1 894.65q0 7.438.5 14.35 6.938 91 104.85 91h711.1q97.912 0 104.8-91 .55-6.912.55-14.35v-73.2q-1.543 64.51-44.65 87.55-23.932 12.8-60.7 12.8h-711.1q-36.786 0-60.75-12.8-43.09-23.04-44.6-87.55v73.2Z"/><path fill="#FFC654" d="M955.2 62.05Q936.402 0 855.55 0h-711.1Q63.598 0 44.8 62.05q-5.7 18.802-5.7 43.3v716.1q1.51 64.51 44.6 87.55 23.964 12.8 60.75 12.8h711.1q36.768 0 60.7-12.8 43.107-23.04 44.65-87.55v-716.1q0-24.498-5.7-43.3Z"/></g><g id="Layer0_0_MEMBER_0_FILL"><path fill="#EE9531" d="M815.55 324.25v-157.8q-1.05-53.5-55-53.5l-147.3.55-35.05.25q-52.15 0-53.7 52.15v157.3q1.3 49.55 53.7 49.55l183.1-1.6q52.65.55 54.25-46.9Z"/><path fill="#C47A28" d="M815.55 166.45V136.7q-.75-55.05-55-55.05l-182.35.5q-53.2 0-53.7 53.45v30.3q1.55-52.15 53.7-52.15l35.05-.25 147.3-.55q53.95 0 55 53.5Z"/></g><g id="Layer0_0_MEMBER_1_FILL"><path fill="#EE9531" d="M411.8 166.45q-1.05-53.5-55-53.5l-147.3.5-35.05.3q-52.15 0-53.7 52.15v157.3q1.3 49.55 53.7 49.55l183.1-1.6q52.65.55 54.25-46.9v-157.8Z"/><path fill="#C47A28" d="M411.8 166.45V136.7q-.75-55.05-55-55.05l-182.35.5q-53.2 0-53.7 53.45v30.3q1.55-52.15 53.7-52.15l35.05-.3 147.3-.5q53.95 0 55 53.5Z"/></g><g id="Layer0_0_MEMBER_2_FILL"><path fill="#C47A28" d="m174.45 502.05 35.05-.25 147.3-.55q53.95 0 55 53.5V525q-.75-55.05-55-55.05l-182.35.5q-53.2 0-53.7 53.45v30.3q1.55-52.15 53.7-52.15Z"/><path fill="#EE9531" d="m209.5 501.8-35.05.25q-52.15 0-53.7 52.15v157.3q1.3 49.55 53.7 49.55l183.1-1.6q52.65.55 54.25-46.9v-157.8q-1.05-53.5-55-53.5l-147.3.55Z"/></g><g id="Layer0_0_MEMBER_3_FILL"><path fill="#EE9531" d="M815.55 712.55v-157.8q-1.05-53.5-55-53.5l-147.3.55-35.05.25q-52.15 0-53.7 52.15v157.3q1.3 49.55 53.7 49.55l183.1-1.6q52.65.55 54.25-46.9Z"/><path fill="#C47A28" d="M815.55 554.75V525q-.75-55.05-55-55.05l-182.35.5q-53.2 0-53.7 53.45v30.3q1.55-52.15 53.7-52.15l35.05-.25 147.3-.55q53.95 0 55 53.5Z"/></g></defs><use xlink:href="#Layer1_0_FILL"/><use xlink:href="#Layer0_0_MEMBER_0_FILL" transform="translate(31.85 39.55)"/><use xlink:href="#Layer0_0_MEMBER_1_FILL" transform="translate(31.85 39.55)"/><use xlink:href="#Layer0_0_MEMBER_2_FILL" transform="translate(31.85 39.55)"/><use xlink:href="#Layer0_0_MEMBER_3_FILL" transform="translate(31.85 39.55)"/></svg>