<svg xmlns="http://www.w3.org/2000/svg" xmlns:xlink="http://www.w3.org/1999/xlink" preserveAspectRatio="none" width="1000" height="1000"><defs><g id="Layer0_0_MEMBER_0_FILL"><path fill="#FFC654" d="M907.15 629.05q1.45 1.4 2.8 2.7 1.5-1.4 3-2.7h-5.8m-22.2-85.4H884q-2.95.25-5.45 1.2-2.35.85-4.4 2 .35-.05.7-.05l11.5-.15q5.55.25 5.8 5.75v.4l-.05 11.55q.15 5.75-5.7 5.5l-11.65.15q-5.65 0-5.8-5.35V552.7q0-1.25.35-2.25-1.05 1-2 2.15-4.25 5.25-5.45 13.4V572.2q.25.55.25 1.15v.2q.55 8.75 3.85 14.95 1.4 2.35 2.9 4.5l.1-8.05v-2.85q-.1-5.65 5.75-5.75l11.45.15q5.75-.15 5.95 5.65l-.05 2.45-.05 9.15q0 5.8-5.9 5.7l-11.4.1h-.4q2 2 4.1 3.95h15.5v13.7q2.35 1.9 4.6 3.9l.05-9.2q0-6 5.75-6h11.5q5.95.05 5.9 6.05l-.05 2.1v7.2q3.1-2.75 6.2-5.4h-1.4V604.3h14.35v.2q2.6-2.35 5-4.85h-12.1q-5.55.1-5.85-5.35v-.5l.05-7.9.05-3.65q.05-5.75 5.75-5.75h11.55q5.9.1 5.9 5.9v2.25l-.1 8.85q3.25-4.4 5.3-10.25 1.55-4.3 1.75-9.7v-.2q.2-.4 0-.95h.2v-5.45q-.2-3.65-1-6.4-2.3-6.55-6.65-10.65.4 1.2.35 2.8v12q-.2 5.15-5.65 5.1l-11.6.05q-5.5.1-5.95-5.05-.05-.3-.05-.6l.2-11.4v-.2q.15-5.8 5.75-5.9l11.65-.05q.45 0 .9.05-4.3-2.35-10.05-3.05h-.25q-.55 0-.8-.15H932.3q-7.9.75-12.85 4.15 2.1 1.4 2.15 5.05v2.8l-.05 8.7q.05 5.75-5.7 5.45l-11.55.3q-5.75-.1-5.9-5.5V552.7q.1-3.7 2.35-5.15-.9-.6-1.8-1.15-4.5-2.5-11.1-2.9H884.95v.15m13.6 38.95q.1-5.85 5.9-5.95l11.4-.15q5.75.25 5.9 6.15v2.3l-.15 9.3q.1 5.7-5.75 5.55l-11.55.1q-5.5 0-5.8-5.05l.05-9.6v-2.65Z"/><path fill="#FFC654" fill-opacity=".996" d="M893.9 617.2v-13.7h-15.5l2.5 2.3q1.4 1.25 2.9 2.45.15.2.3.35 4.05 3.5 8.1 7.05.85.8 1.7 1.55m46.35-12.2q.3-.25.55-.5v-.2h-14.35v11.55h1.4q.1-.05.2-.15l2.1-1.8q2.85-2.55 5.8-5.1 1.6-1.45 3.25-2.85.5-.5 1.05-.95Z"/><path fill="#C47A28" d="M915.8 608.7q5.6.1 5.85 5.35l.05-2.1q.05-6-5.9-6.05h-11.5q-5.75 0-5.75 6l-.05 9.2v1.25l.05-1.25v-6.4q0-6 5.75-6h11.5m35.2-56q.05-1.6-.35-2.8-.95-2.85-4.4-3.2-.45-.05-.9-.05l-11.65.05q-5.6.1-5.75 5.9 2.1-.55 4.55-.85h1.55q.75.2 1.8.2 6.6.8 10.8 4.3 2.55 2.2 4.35 5.35v-8.9m-23.1 33.2.05-.8q.05-5.75 5.75-5.75h11.55q5.45.1 5.9 5.1v-2.05q0-5.8-5.9-5.9H933.7q-5.7 0-5.75 5.75l-.05 3.65m-6.3-30.4v-2.8q-.05-3.65-2.15-5.05-.05.05-.15.1-1.25.85-2.45 1.85-4 3.4-6.9 8.05-.55-.95-1.15-1.95-2.3-3.4-5.45-6.1-1.25-1.1-2.6-2.05-2.25 1.45-2.35 5.15v2.55q3.75 2.7 6.35 6.45.55 1 1.15 1.95.9 1.45 2.45 2 1.6.55 3.2 0 1.55-.55 2.45-2 3.05-4.9 7.6-8.15m-52.65 26.6v2.35q.15-5.2 5.75-5.25l11.45.15q5.55-.15 5.9 5.25l.05-2.45q-.2-5.8-5.95-5.65l-11.45-.15q-5.85.1-5.75 5.75m15.25-30.15h.75q.7 0 1.4-.2H887.8q2.35.15 4.35.65-.25-5.5-5.8-5.75l-11.5.15q-.35 0-.7.05-2.7 1.5-4.85 3.6-.35 1-.35 2.25v9.65q.9-1.8 2.05-3.25 3.5-4.2 9.15-6.25l.1-.05q1.85-.65 3.95-.85m20.25 24.7q-5.8.1-5.9 5.95v2.65q.189-5.652 5.9-5.75l11.4-.15q5.45.25 5.9 5.6v-2.3q-.15-5.9-5.9-6.15l-11.4.15Z"/><path fill="#EE9531" d="M921.65 614.05q-.25-5.25-5.85-5.35h-11.5q-5.75 0-5.75 6v6.4q2.75 2.45 5.4 5 1.65 1.5 3.2 2.95h5.8q3.55-3.25 7.1-6.45.8-.7 1.6-1.35v-7.2m6.3-28.95-.05.8-.05 7.9v.5q.3 5.45 5.85 5.35h12.1q1.95-2.05 3.75-4.2.8-.9 1.5-1.95l.1-8.85v-.2q-.45-5-5.9-5.1H933.7q-5.7 0-5.75 5.75M914 563.65q-.9 1.45-2.45 2-1.6.55-3.2 0-1.55-.55-2.45-2-.6-.95-1.15-1.95-2.6-3.75-6.35-6.45v9.2q.15 5.4 5.9 5.5l11.55-.3q5.75.3 5.7-5.45l.05-8.7q-4.55 3.25-7.6 8.15m13.95-11.05v.2l-.2 11.4q0 .3.05.6.45 5.15 5.95 5.05l11.6-.05q5.45.05 5.65-5.1v-3.1q-1.8-3.15-4.35-5.35-4.2-3.5-10.8-4.3-1.05 0-1.8-.2h-1.55q-2.45.3-4.55.85m-59 31.85v.5l-.1 8.05q2.45 3.4 5.25 6.35l.2.2h.4l11.4-.1q5.9.1 5.9-5.7l.05-9.15q-.35-5.4-5.9-5.25l-11.45-.15q-5.6.05-5.75 5.25m16-32.5h-.75q-2.1.2-3.95.85l-.1.05q-5.65 2.05-9.15 6.25-1.15 1.45-2.05 3.25v2.3q.15 5.35 5.8 5.35l11.65-.15q5.85.25 5.7-5.5l.05-11.55v-.4q-2-.5-4.35-.65H886.35q-.7.2-1.4.2m19.5 27.55q-5.711.098-5.9 5.75l-.05 9.6q.3 5.05 5.8 5.05l11.55-.1q5.85.15 5.75-5.55l.15-9.3q-.45-5.35-5.9-5.6l-11.4.15Z"/></g><g id="Layer0_0_MEMBER_1_FILL"><path fill="#C47A28" d="M858.65 573.6q0-.2-.1-.35-.14-.375-.15-.75v4.45q0 .55.15 1.05.1.2.1.35v.2q.6 9.5 4.2 16.2.05.15.2.35 3.65 6.35 8.6 11.45v-.05q.05.05.15.2 4.65 4.6 9.65 8.9l.05.05h.05q.05.05.05.1h.05q4.9 4.3 9.85 8.7.15.1.3.25 5 4.15 9.65 8.6l.2.1q3.05 2.9 6 5.6.95.9 2.3.95 1.35.05 2.3-.85l.05-.05q5.05-4.6 10.05-9.05.05-.1.1-.1 4.9-4.35 9.85-8.5l.2-.2q5-4.4 10-8.85l.2-.1q5.15-4.65 9.5-9.8l.15-.15q4.55-5.45 7.25-13.1.05-.05.05-.1 1.55-4.4 1.85-9.75 0-.4.05-.8 0-.15.05-.3.1-.35.15-.65V572.8q-.05.35-.15.7-.05.1-.05.3-.05.35-.05.75-.3 5.4-1.85 9.75 0 .05-.05.1-2.7 7.65-7.25 13.15l-.15.15q-4.35 5.15-9.5 9.75-.1.05-.2.15-5 4.4-10 8.85-.1.05-.2.2-4.95 4.1-9.85 8.45l-.1.1q-5 4.5-10.05 9.05l-.05.05q-.95.9-2.3.9-1.35-.05-2.3-.95-2.95-2.75-6-5.6-.1-.1-.2-.15-4.65-4.45-9.65-8.55-.15-.2-.3-.25-4.95-4.4-9.85-8.7l-.1-.1h-.05l-.05-.05q-5-4.35-9.65-8.95l-.15-.15q-4.95-5.1-8.6-11.45-.15-.15-.2-.3-3.6-6.7-4.2-16.2v-.2Z"/><path fill="#FFC654" d="M877.35 541.65h-.05q-7.85 2.8-12.65 8.75-.05.05-.1.15-4.75 5.85-6.1 14.95-.05.25-.05.5v6.5q.01.375.15.75.1.15.1.35v.2q.6 9.5 4.2 16.2.05.15.2.3 3.65 6.35 8.6 11.45l.15.15q4.65 4.6 9.65 8.95l.05.05h.05l.1.1q4.9 4.3 9.85 8.7.15.05.3.25 5 4.1 9.65 8.55.1.05.2.15 3.05 2.85 6 5.6.95.9 2.3.95 1.35 0 2.3-.9l.05-.05q5.05-4.55 10.05-9.05l.1-.1q4.9-4.35 9.85-8.45.1-.15.2-.2 5-4.45 10-8.85.1-.1.2-.15 5.15-4.6 9.5-9.75l.15-.15q4.55-5.5 7.25-13.15.05-.05.05-.1 1.55-4.35 1.85-9.75 0-.4.05-.75 0-.2.05-.3.1-.35.15-.7v-6.05q-.25-4.05-1.1-7.1-.1-.2-.1-.35-2.9-8.05-8.6-12.8-.1-.1-.15-.2-5.85-4.95-15.1-6.05h-.1q-.25 0-.4-.05-.5-.15-1.05-.15H931.95q-8.95.9-14.6 4.85-3.5 2.45-6.25 5.55-.25.3-.65.4-.35.1-.7 0-.4-.1-.65-.4-3.6-4.05-8.35-7h-.05l-.15-.15.05.1q-5.05-2.9-12.5-3.35H884.95q-.55 0-1.05.15-.15.05-.3.05-3.4.25-6.25 1.4m10.35 6.6h.1q5.15.35 8.7 2.25h.05l.05.05q4.95 3.05 8.15 7.65.55 1 1.15 1.95.9 1.45 2.45 2 1.6.55 3.2 0 1.55-.55 2.45-2 3.2-5.15 8.05-8.5 4.05-2.75 10.45-3.4h1.55q.75.2 1.8.2 6.6.8 10.8 4.3 4 3.45 6.05 9.15.05 0 .05.05v.1q0 .05.05.1.55 2.1.75 4.85v5.4l.45-.5q.2 3.8-.4 2.1-.05-.1-.05-.2-.15-.45-.2-.9-.05.2-.05.45-.15 4.6-1.45 8.3v.05q-2.2 6.25-5.95 10.7-4 4.75-8.8 9-5.05 4.45-10 8.85-.1.05-.1.1-2.05 1.7-4.05 3.4-.15.15-.35.3h-.95q-.05.85-.85 1.55-.05.05-.1.15-1.9 1.6-3.8 3.25v.05q-2.85 2.55-5.7 5.15l-.05-.05q-.45.5-1.1.5-.65 0-1.15-.5v.05q-.8-.8-1.65-1.55-3.8-3.65-7.8-7.05-.1-.05-.15-.1-.65-.6-.75-1.55h-1.1q-.25-.25-.5-.45-5.05-4.45-10-8.8l-.05-.05q-4.9-4.15-9.35-8.6 0-.05-.05-.05-4.15-4.35-7.35-9.75-2.75-5.35-3.3-12.8v-.1q0-.95-.2-1.8v-5.2q1-6.5 4.35-10.75 3.5-4.2 9.15-6.25l.1-.05q1.85-.65 3.95-.85h.75q.7 0 1.4-.2h1.35Z"/></g></defs><use xlink:href="#Layer0_0_MEMBER_0_FILL" transform="matrix(9.67557 0 0 9.67557 -8305.5 -5208.6)"/><use xlink:href="#Layer0_0_MEMBER_1_FILL" transform="matrix(9.67557 0 0 9.67557 -8305.5 -5208.6)"/></svg>